<svg fill="none" height="30" viewBox="0 0 141 30" width="141" xmlns="http://www.w3.org/2000/svg" xmlns:xlink="http://www.w3.org/1999/xlink"><clipPath id="a"><path d="m0 0h141v30h-141z"/></clipPath><g clip-path="url(#a)"><path d="m15.6726.30053-.1064-.30053h-3.7409l-9.44959 28.2145h-2.37571v.9016l7.02075-.0354v-.8839h-3.72313l2.74802-8.185h7.51716l2.8012 8.2027h-2.9785v.8839h13.6869v-.8839h-1.8615zm-2.4289 18.82737h-6.89666l3.42173-10.20038 3.49263 10.20038zm33.7563-6.046c0 1.9269-1.5779 3.4826-3.4926 3.4826-1.9148 0-3.4927-1.5733-3.4927-3.4826 0-.9723.3723-1.8739 1.0283-2.5103.3369-.3359.7446-.58339 1.1879-.74249-2.9076.22979-4.0955 3.05829-4.0955 9.74069v8.6447h2.5353v.8839h-12.5345v-.8839h2.5352v-17.9434h-2.5352v-.88395h9.9815v2.95225c.7801-2.1744 2.092-3.27046 4.0954-3.3942 1.4361-.08839 2.6239.30053 3.4749 1.096.6383.6011 1.0815 1.4143 1.2411 2.3336.0532.2298.0709.4773.0709.7071zm94 15.1503v.8839h-11.382v-.8839h1.826v-12.3571c-.053-2.5811-.408-4.2428-1.064-4.8969-.213-.2121-.425-.3005-.709-.3005-1.897 0-3.173 3.9776-3.173 9.8821v7.6901h2.021v.8839h-12.021v-.8839h2.536v-17.9788h-2.536v-.88395h9.982v3.34115c.957-2.6163 2.836-3.80078 5.921-3.80078 6.152 0 6.472 6.85918 6.472 8.22038v11.0666h2.109zm-70.8812 0h1.4006v.8839h-11.2048v-.8839h1.8438l-4.5564-8.1497-.7091.8839v7.2658h2.1629v.8839h-12.1444v-.8839h2.5352v-27.348287h-2.5352v-.883913h9.9815v19.5522l7.393-9.0867h-2.5352v-.88389h6.4002v.88389h-2.7303l-3.1026 3.8185 7.7831 13.9305zm25.4591 0h1.4006v.8839h-11.2048v-.8839h1.8438l-4.5564-8.1497-.7092.8839v7.2658h2.163v.8839h-12.1445v-.8839h2.5353v-27.348287h-2.5353v-.883913h9.9815v19.5522l7.3931-9.0867h-2.5353v-.88389h6.4003v.88389h-2.7303l-3.1026 3.8185 7.7831 13.9305zm20.0691-9.8291-.053-.4773c-.532-5.6394-3.812-8.85685-8.989-8.85685-5.797 0-10.513 4.70245-10.513 10.48325 0 5.7807 4.716 10.4832 10.513 10.4832 3.617 0 6.933-1.8209 8.883-4.8616l.088-.1414-.744-.4773-.089.1414c-1.365 2.1391-3.475 3.6241-5.957 4.1898-1.117.2298-2.056.0353-2.766-.5481-2.109-1.7147-2.109-6.4879-2.109-8.786 0-.3713 0-.7602.017-1.1315h11.719zm-11.683-.8839c.266-4.5434 1.312-7.58402 2.641-7.58402.763 0 1.259.76012 1.543 2.33352.266 1.5027.284 3.4649.284 5.2328h-4.468z" fill="#000"/></g></svg>