<?xml version="1.0" encoding="utf-8"?>
<!-- Generator: Adobe Illustrator 24.1.0, SVG Export Plug-In . SVG Version: 6.00 Build 0)  -->
<svg version="1.1" id="Layer_1" xmlns="http://www.w3.org/2000/svg" xmlns:xlink="http://www.w3.org/1999/xlink" x="0px" y="0px"
	 viewBox="0 0 800 800" style="enable-background:new 0 0 800 800;" xml:space="preserve">
<style type="text/css">
	.st0{fill:#434444;}
</style>
<g>
	<polygon class="st0" points="184.4,336.8 151.3,325 193.4,311.6 200.7,291 156.4,305.2 132.9,271.1 125.7,291.2 148.1,323.9 
		117.9,313.2 111.8,330.5 178.3,354.2 	"/>
	<path class="st0" d="M230.1,254.2l12.6-16.2l-32.1-1.3c0.4-4.1-0.1-7.9-1.6-11.6c-1.5-3.7-4-6.8-7.5-9.5c-3.8-3-7.9-4.7-12.3-5
		c-4.3-0.4-8.6,0.4-12.7,2.5c-4.1,2-7.8,5.1-11,9.2l-17,21.9l55.8,43.3l11.3-14.5l-17.3-13.4l4.7-6L230.1,254.2z M191,241.8
		l-5.8,7.4l-12.3-9.5l5.8-7.4c1.6-2,3.4-3.2,5.4-3.6c2-0.4,4,0.2,5.8,1.6c1.8,1.4,2.9,3.2,3.1,5.3
		C193.3,237.7,192.6,239.8,191,241.8z"/>
	<path class="st0" d="M240.4,223.3c4.9,2.4,10,3.3,15.4,2.7s10.5-2.6,15.4-5.9c4.9-3.4,8.5-7.4,11-12.3c2.4-4.8,3.4-10,3-15.4
		s-2.4-10.7-5.9-15.8l-23-33.5l-15.2,10.4l23.9,34.8c2.3,3.3,3.1,6.6,2.4,9.9c-0.6,3.3-2.5,6-5.6,8.1s-6.3,2.9-9.6,2.4
		c-3.3-0.6-6.1-2.5-8.3-5.8L220,168.1l-15.2,10.4l23,33.5C231.3,217.2,235.5,220.9,240.4,223.3z"/>
	<path class="st0" d="M298.3,160.5c3.9,2.4,9.1,4,15.5,4.8l7.9,1c3,0.2,5,0.4,6.2,0.8c1.2,0.4,1.9,1.2,2.3,2.5c0.9,2.8-1,5-5.6,6.4
		c-3.4,1.1-6.5,1.3-9.2,0.6c-2.7-0.6-5.5-1.8-8.2-3.5l-9.1,12.4c3.9,3.7,8.5,6.2,14.1,7.3s11.3,0.8,17.4-1.1
		c4.6-1.5,8.6-3.6,11.8-6.5c3.3-2.9,5.4-6.2,6.6-10.1c1.1-3.9,1-7.9-0.3-12.2c-1.5-4.8-4.2-8.3-8-10.6s-9-3.7-15.7-4.3l-8.7-0.7
		c-2.4-0.2-4.2-0.5-5.3-1c-1.1-0.5-1.8-1.3-2.2-2.5c-0.4-1.4-0.2-2.6,0.7-3.6c0.9-1,2.2-1.8,4.1-2.4c2.4-0.7,4.6-0.8,6.6-0.2
		c2.1,0.6,4.3,1.8,6.6,3.7l8.9-12.7c-3.4-3.5-7.4-5.9-12-7.2c-4.7-1.3-9.8-1-15.3,0.7c-4.6,1.4-8.4,3.5-11.4,6.3s-5.1,6.1-6.1,9.8
		s-0.9,7.6,0.4,11.6C291.6,154.5,294.3,158.1,298.3,160.5z"/>
	<polygon class="st0" points="375.7,127.3 377.5,181.2 395.9,180.6 394.1,126.6 415.2,125.9 414.7,109.4 354,111.4 354.5,127.9 	"/>
	
		<rect x="404.3" y="140.4" transform="matrix(0.179 -0.9838 0.9838 0.179 213.6873 555.2712)" class="st0" width="70.6" height="18.4"/>
	<polygon class="st0" points="194.3,504.8 201.6,516.9 197.3,519.5 192.3,511.1 186,514.9 191,523.2 187.3,525.5 180.3,513.8 
		174,517.6 185.2,536.3 212.1,520.1 200.6,501 	"/>
	<path class="st0" d="M182.1,501.3c0.9-1.9,1.3-4.2,1.4-7.1v-3.5c-0.1-1.3,0-2.2,0.1-2.8c0.1-0.5,0.4-0.9,1-1.2
		c1.2-0.5,2.3,0.2,3.1,2.2c0.6,1.5,0.9,2.8,0.7,4s-0.5,2.5-1.2,3.8l5.9,3.4c1.5-1.9,2.3-4.1,2.6-6.6s-0.2-5-1.3-7.6
		c-0.9-2-2-3.6-3.4-4.9s-3-2.1-4.8-2.4s-3.6-0.1-5.4,0.7c-2,0.9-3.5,2.2-4.3,4s-1.2,4.2-1.2,7.1l0.1,3.9c0,1.1,0,1.9-0.2,2.4
		s-0.5,0.9-1,1.1c-0.6,0.3-1.1,0.2-1.6-0.1c-0.5-0.3-0.9-0.9-1.3-1.7c-0.4-1-0.6-2-0.4-2.9c0.2-0.9,0.6-2,1.3-3.1l-6.1-3.3
		c-1.4,1.7-2.3,3.5-2.6,5.7c-0.3,2.1,0,4.4,1.1,6.7c0.9,1.9,2,3.5,3.3,4.7s2.9,2,4.6,2.2c1.7,0.3,3.4,0,5.1-0.7
		C179.7,504.6,181.2,503.2,182.1,501.3z"/>
	<polygon class="st0" points="162.6,471 185.6,464.2 183.3,456.4 160.3,463.1 157.7,454.1 150.6,456.1 158.1,482.1 165.2,480 	"/>
	<path class="st0" d="M178.6,439.8c-1.2-0.8-2.5-1-4-0.7s-2.6,1-3.4,2.2c-0.8,1.2-1.1,2.5-0.8,4c0.3,1.6,1.1,2.7,2.3,3.5
		s2.5,1,4,0.7s2.6-1.1,3.4-2.3s1-2.6,0.7-4.1C180.5,441.7,179.8,440.6,178.6,439.8z"/>
	<path class="st0" d="M551.4,237.3l-7.3-6.4l2.9,0.1c3.3-0.3,5.9-0.8,8.1-1.4c2.1-0.7,3.9-1.8,5.3-3.4c1.3-1.5,2.1-3.1,2.4-5
		c0.3-1.8,0.1-3.7-0.7-5.5c-0.7-1.8-1.9-3.5-3.5-4.9c-1.7-1.5-3.6-2.5-5.6-2.9s-3.9-0.4-5.7,0.2c-1.8,0.6-3.3,1.5-4.4,2.9
		c-0.6,0.7-1.1,1.4-1.5,2.2l6.2,5.4c0.4-0.7,0.8-1.2,1.2-1.7c0.8-0.9,1.6-1.4,2.5-1.4c0.9-0.1,1.7,0.2,2.4,0.8s1.1,1.4,1.2,2.3
		c0,0.9-0.3,1.7-1,2.5c-0.7,0.7-1.6,1.3-2.7,1.7c-1.1,0.4-2.7,0.7-4.6,0.9l-16.8,2.1l-1.1,1.3l18.1,15.8L551.4,237.3z"/>
	<path class="st0" d="M557,242.7c-1.2,2.4-1.8,4.8-1.6,7.2s1.2,4.7,3,6.8c1.8,2.1,4,3.5,6.3,4c2.4,0.5,4.8,0.3,7.3-0.6
		s5-2.4,7.3-4.4s4.1-4.2,5.3-6.5s1.7-4.7,1.4-7s-1.3-4.6-3.1-6.8c-1.8-2.1-3.9-3.5-6.3-4.1c-2.3-0.6-4.7-0.5-7.2,0.4
		c-2.5,0.8-4.9,2.3-7.2,4.3C560.1,238.1,558.3,240.3,557,242.7z M567.9,242.5c2.3-2,4.2-3.1,5.7-3.5c1.6-0.3,2.9,0.1,3.9,1.3
		s1.3,2.5,0.7,4s-2,3.2-4.2,5.2c-4.6,4-7.9,4.8-9.9,2.4C562,249.6,563.3,246.4,567.9,242.5z"/>
	<path class="st0" d="M592.6,266c1-0.6,1.9-0.9,2.8-0.7c0.9,0.2,1.5,0.6,2.1,1.4c0.5,0.8,0.7,1.7,0.5,2.5s-0.7,1.6-1.7,2.1
		c-0.8,0.5-1.8,0.9-3.1,0.9c-1.2,0.1-2.8,0-4.7-0.4l-16.7-2.6l-1.4,0.9l13.1,20.1l6.2-4l-5.3-8.1l2.7,0.9c3.2,0.6,5.9,0.9,8.1,0.8
		c2.2-0.1,4.2-0.7,6-1.8c1.6-1.1,2.9-2.4,3.6-4.1c0.8-1.7,1-3.5,0.8-5.5s-0.9-3.8-2.1-5.6c-1.3-1.9-2.8-3.4-4.6-4.4
		s-3.7-1.4-5.5-1.3c-1.9,0.1-3.6,0.6-5,1.5c-0.7,0.5-1.4,1-2,1.7l4.5,6.9C591.6,266.8,592.1,266.4,592.6,266z"/>
	<path class="st0" d="M593.6,293.2c-1.9,1.9-3,4.1-3.5,6.5s-0.1,4.8,1.1,7.4c1.2,2.6,2.9,4.4,5,5.6s4.5,1.6,7.2,1.5
		c2.7-0.2,5.4-0.9,8.2-2.2s5.1-2.9,6.9-4.8c1.8-1.9,2.9-4,3.3-6.4c0.4-2.4,0-4.8-1.2-7.4s-2.8-4.4-4.9-5.6c-2.1-1.2-4.4-1.7-7-1.6
		s-5.3,0.9-8.1,2.2C597.8,289.6,595.5,291.3,593.6,293.2z M610.6,294.2c1.6,0.1,2.7,0.9,3.4,2.3s0.5,2.8-0.4,4.1
		c-0.9,1.3-2.8,2.6-5.5,3.8c-5.5,2.6-8.9,2.4-10.2-0.4s0.8-5.5,6.3-8.1C606.8,294.7,609,294.1,610.6,294.2z"/>
	<polygon class="st0" points="306.3,623.2 314,608.5 271.5,586.3 238.9,648.9 255.2,657.4 266.3,636.2 287.5,647.3 295.2,632.6 
		273.9,621.5 280.2,609.6 	"/>
	<path class="st0" d="M370.2,624.9c-5.1-4.3-11.1-7-17.9-8.3s-13.3-0.9-19.7,1.1c-6.3,2.1-11.7,5.5-16,10.4
		c-4.4,4.9-7.2,10.6-8.5,17.3s-0.8,13.1,1.5,19.2c2.3,6.1,6,11.3,11.1,15.5s11,7,17.8,8.3s13.4,0.9,19.7-1.1
		c6.4-2,11.7-5.5,16.1-10.3s7.3-10.6,8.6-17.3c1.3-6.7,0.8-13-1.5-19.2C379.1,634.4,375.3,629.2,370.2,624.9z M364.4,656.1
		c-0.8,3.9-2.2,7.2-4.5,9.8c-2.2,2.6-4.9,4.5-8.1,5.6s-6.6,1.3-10.1,0.6c-5.6-1.1-9.8-3.7-12.6-8c-2.8-4.3-3.6-9.4-2.5-15.3
		c0.7-3.8,2.2-7.1,4.4-9.8c2.2-2.7,4.8-4.6,8-5.7c3.1-1.1,6.6-1.3,10.3-0.6c3.6,0.7,6.6,2.1,9.2,4.3c2.5,2.2,4.4,4.9,5.4,8.2
		C365,648.7,365.2,652.3,364.4,656.1z"/>
	<path class="st0" d="M463.7,630.5c-4.3-5-9.5-8.6-15.8-10.9c-6.3-2.3-12.8-2.8-19.7-1.7c-6.8,1.1-12.9,3.7-18.1,7.7
		c-5.2,4.1-9.1,9.1-11.6,15.2c-2.5,6.1-3.2,12.4-2.1,19.1c1.1,6.8,3.7,12.6,7.9,17.6c4.2,5,9.4,8.6,15.7,10.8
		c6.2,2.3,12.8,2.8,19.6,1.8c6.8-1.1,12.9-3.7,18.2-7.8c5.3-4.1,9.2-9.1,11.7-15.2c2.5-6,3.2-12.4,2.2-19.2
		C470.6,641.3,468,635.5,463.7,630.5z M452.3,661.7c-1.2,3.2-3.1,5.9-5.7,8s-5.7,3.4-9.3,4c-5.6,0.9-10.5-0.2-14.6-3.2
		c-4.1-3.1-6.6-7.6-7.6-13.5c-0.6-3.9-0.4-7.4,0.8-10.7c1.1-3.3,3-5.9,5.6-8s5.8-3.4,9.5-4c3.6-0.6,7-0.3,10.1,0.9s5.8,3.2,7.9,5.9
		s3.5,6,4.1,9.9C453.7,654.9,453.4,658.5,452.3,661.7z"/>
	<path class="st0" d="M529.9,598c-5.4-3.2-11.4-4.7-17.9-4.5s-13,1.9-19.4,5.3l-21.8,11.4l32.6,62.6l21.8-11.4
		c6.5-3.4,11.6-7.7,15.4-13c3.8-5.3,6-11.1,6.5-17.5c0.5-6.3-0.9-12.6-4.1-18.8C539.7,605.9,535.4,601.2,529.9,598z M527.8,635.7
		c-1.7,4.7-5.1,8.4-10.3,11.1l-5.4,2.8l-17.3-33.2l5.4-2.8c5.2-2.7,10.1-3.5,14.8-2.4s8.5,4.3,11.2,9.6
		C529,626,529.5,630.9,527.8,635.7z"/>
	<polygon class="st0" points="575.4,532.3 560.3,547.6 566.7,586.6 544,564.1 531,577.2 581.2,626.8 594.2,613.8 569.1,589 
		613,594.7 628.4,579.1 582.2,573.2 	"/>
	
		<rect x="605.5" y="497.3" transform="matrix(0.5169 -0.856 0.856 0.5169 -158.9674 783.4694)" class="st0" width="18.4" height="70.6"/>
	<polygon class="st0" points="630.1,448 614.4,442.6 594.7,500 610.4,505.4 617.3,485.4 668.3,502.9 674.3,485.5 623.2,468 	"/>
	<path class="st0" d="M686.2,399.5c-1.6-4-3.9-7.3-7.2-9.7c-3.2-2.4-7.1-3.7-11.6-3.9c-5-0.2-9.2,1-12.7,3.8s-6.6,7.2-9.5,13.2
		l-3.7,8c-1,2.2-1.9,3.8-2.8,4.6c-0.8,0.9-1.9,1.2-3.1,1.2c-1.4-0.1-2.5-0.7-3.2-1.9c-0.7-1.2-1-2.7-0.9-4.6
		c0.1-2.5,0.8-4.6,2.1-6.3c1.3-1.7,3.2-3.4,5.8-5l-8.9-12.7c-4.5,1.9-8.1,4.9-10.9,8.8c-2.8,3.9-4.3,8.8-4.6,14.7
		c-0.2,4.8,0.4,9.1,2,12.9s3.9,6.9,7.1,9.1c3.1,2.3,6.8,3.5,11,3.7c4.9,0.2,9.2-1.1,12.8-3.9c3.6-2.9,6.9-7.1,9.8-12.9l3.6-7.1
		c1.2-2.7,2.2-4.6,2.9-5.5c0.7-1,1.8-1.4,3.1-1.3c3,0.1,4.4,2.6,4.1,7.5c-0.2,3.6-1,6.5-2.6,8.9c-1.5,2.4-3.6,4.5-6.1,6.4l8.5,12.8
		c4.8-2.3,8.7-5.9,11.7-10.7c3-4.8,4.7-10.3,5-16.7C688.4,408,687.8,403.5,686.2,399.5z"/>
	<circle class="st0" cx="489.8" cy="385.1" r="4.2"/>
	<circle class="st0" cx="489.8" cy="402.4" r="4.2"/>
	<path class="st0" d="M293.1,389.4c2.3,0,4.2-1.9,4.2-4.2s-1.9-4.2-4.2-4.2c-2.3,0-4.2,1.9-4.2,4.2S290.8,389.4,293.1,389.4z"/>
	<path class="st0" d="M293.1,406.6c2.3,0,4.2-1.9,4.2-4.2c0-2.3-1.9-4.2-4.2-4.2c-2.3,0-4.2,1.9-4.2,4.2S290.8,406.6,293.1,406.6z"
		/>
	<path class="st0" d="M489.8,435.4c-2.3,0-4.2,1.9-4.2,4.2c0,2.3,1.9,4.2,4.2,4.2c2.3,0,4.2-1.9,4.2-4.2S492.1,435.4,489.8,435.4z"
		/>
	<path class="st0" d="M489.8,452.6c-2.3,0-4.2,1.9-4.2,4.2c0,2.3,1.9,4.2,4.2,4.2c2.3,0,4.2-1.9,4.2-4.2S492.1,452.6,489.8,452.6z"
		/>
	<path class="st0" d="M293.1,435.4c-2.3,0-4.2,1.9-4.2,4.2c0,2.3,1.9,4.2,4.2,4.2c2.3,0,4.2-1.9,4.2-4.2
		C297.4,437.3,295.5,435.4,293.1,435.4z"/>
	<path class="st0" d="M293.1,452.6c-2.3,0-4.2,1.9-4.2,4.2c0,2.3,1.9,4.2,4.2,4.2c2.3,0,4.2-1.9,4.2-4.2
		C297.4,454.5,295.5,452.6,293.1,452.6z"/>
	<path class="st0" d="M489.8,489c-2.3,0-4.2,1.9-4.2,4.2c0,2.3,1.9,4.2,4.2,4.2c2.3,0,4.2-1.9,4.2-4.2S492.1,489,489.8,489z"/>
	<circle class="st0" cx="489.8" cy="510.5" r="4.2"/>
	<path class="st0" d="M293.1,489c-2.3,0-4.2,1.9-4.2,4.2c0,2.3,1.9,4.2,4.2,4.2c2.3,0,4.2-1.9,4.2-4.2
		C297.4,490.9,295.5,489,293.1,489z"/>
	<path class="st0" d="M293.1,506.2c-2.3,0-4.2,1.9-4.2,4.2c0,2.3,1.9,4.2,4.2,4.2c2.3,0,4.2-1.9,4.2-4.2S295.5,506.2,293.1,506.2z"
		/>
	<path class="st0" d="M291,313.4l20.9,6.2c0.4,0.1,0.8,0.2,1.1,0.2c1.7,0,3.3-1.1,3.8-2.9c0.6-2.1-0.6-4.3-2.7-4.9l-20.9-6.2
		c-2.1-0.6-4.3,0.6-4.9,2.7C287.7,310.5,288.9,312.7,291,313.4z"/>
	<path class="st0" d="M296.3,329.6c-0.6,2.1,0.6,4.3,2.7,4.9l20.9,6.2c0.4,0.1,0.8,0.2,1.1,0.2c1.7,0,3.3-1.1,3.8-2.9
		c0.6-2.1-0.6-4.3-2.7-4.9l-20.9-6.2C299.1,326.3,296.9,327.5,296.3,329.6z"/>
	<path class="st0" d="M304.2,350.9c-0.6,2.1,0.6,4.3,2.7,4.9l20.9,6.2c0.4,0.1,0.8,0.2,1.1,0.2c1.7,0,3.3-1.1,3.8-2.9
		c0.6-2.1-0.6-4.3-2.7-4.9l-20.9-6.2C307.1,347.6,304.9,348.8,304.2,350.9z"/>
	<path class="st0" d="M272.7,287.4c-2.4,6.2-2.4,13.2,0.1,19.7c6.6,17.6,13.3,35.5,19.8,52.8l2,5.4c0.5,1.3,0.8,2.3,0.2,3.5
		c-0.1,0.1-0.1,0.3-0.1,0.5h-12.9c-2.1,0-3.9,1.7-3.9,3.9v41c0,2.1,1.7,3.9,3.9,3.9h1v5.2h-1c-2.1,0-3.9,1.7-3.9,3.9v41
		c0,2.1,1.7,3.9,3.9,3.9h1v5.9h-1c-2.1,0-3.9,1.7-3.9,3.9v41c0,2.1,1.7,3.9,3.9,3.9h219.3c2.1,0,3.9-1.7,3.9-3.9v-41
		c0-2.1-1.7-3.9-3.9-3.9h-0.7v-5.9h0.7c2.1,0,3.9-1.7,3.9-3.9v-41c0-2.1-1.7-3.9-3.9-3.9h-0.7v-5.2h0.7c2.1,0,3.9-1.7,3.9-3.9v-41
		c0-2.1-1.7-3.9-3.9-3.9h-3.4c0.2-4.3-0.8-8.6-2.8-12.3c0.1-0.1,0.2-0.2,0.2-0.3c1.7-3.5,7.6-12.9,14.5-14.8
		c2.8-0.8,5.6-0.2,8.5,1.6c1.8,1.2,4.3,0.7,5.5-1.2c1.2-1.8,0.7-4.3-1.2-5.5c-4.8-3.2-9.9-4.1-15-2.7c-3.2,0.9-6.1,2.7-8.6,4.8
		c1-3.4,1.4-6.8,1.3-10.1c-0.6-14.3-11.9-25.2-12.4-25.6c-0.7-0.6-1.6-1-2.5-0.9c-0.9,0-1.8,0.4-2.4,1.1
		c-0.4,0.5-10.9,12.2-10.3,26.5c0.2,4.7,1.7,9.6,4.5,14.5c-8.2-1.2-16.5,1.9-21.8,8.3c0.1-0.5,0.2-1.1,0.3-1.6
		c0.8-7.2-1.3-12.9-5-16.9l17.9-16.1c1.6-1.5,1.8-4,0.3-5.6s-4-1.8-5.6-0.3l-11.4,10.2l3.4-15.5c0.5-2.1-0.9-4.3-3-4.7
		c-2.2-0.5-4.3,0.9-4.7,3l-5.2,23.4c-7.2-2.6-15.5-1.5-20.8,4c-2.6,2.7-5.4,5.4-7.1,9.3c-0.1,0.1-0.1,0.3-0.2,0.4l-48.4-48.4
		l-31.2,31.2c-5-13.2-8.9-23.8-8.9-23.8c-0.8-2.2-1.7-4.4-2.5-6.5c-0.3-0.8-0.6-1.5-0.9-2.3c-0.5-1.3-1-2.6-1.5-3.9
		c-1.8-4.9-4.5-8.9-8-11.7c-3.5-2.9-7.9-4.8-13-5.6c-0.1,0-0.3-0.1-0.4-0.2c-0.1,0-0.1-0.1-0.2-0.1l0,0h-5.9
		c-0.8,0.3-1.6,0.5-2.4,0.7c-1.7,0.5-3.5,1-5.1,1.7C279.7,276.3,275.1,281.2,272.7,287.4z M497.2,519.1H285.6v-33.3h1h15.3h179.4
		h15.3h0.7L497.2,519.1L497.2,519.1z M290.5,478.1v-5.9h7.5v5.9H290.5z M305.8,478.1v-5.9h171.6v5.9H305.8z M485.2,478.1v-5.9h7.5
		v5.9H485.2z M497.2,464.4h-0.7h-15.3H301.9h-15.3h-1v-33.3h1h15.3h179.4h15.3h0.7L497.2,464.4L497.2,464.4z M290.5,423.4v-5.2h7.5
		v5.2H290.5z M305.8,423.4v-5.2h171.6v5.2H305.8z M485.2,423.4v-5.2h7.5v5.2H485.2z M485.8,311.1c2.9,3.6,7.4,10.4,7.7,18.1
		c0.2,5.7-1.7,11.7-5.7,17.6c-0.1,0.2-0.3,0.5-0.4,0.7c-5-6.2-7.7-12.3-7.9-17.7C479.2,322,483.1,314.9,485.8,311.1z M459.1,361.4
		c3.8-8.1,13.5-11.6,21.6-7.8c6.1,2.9,9.7,9.2,9.3,15.8h-35.2C456.3,366.9,457.7,364.2,459.1,361.4z M493.3,377.1h4v33.3h-0.7h-15.3
		H301.9h-15.3h-1v-33.3h161.6H493.3z M370.1,369.4c1-3.9,4.8-10.8,8.6-12.9c2.7-1.5,5.8-2.3,8.8-2.3c1.3,0,2.7,0.2,3.9,0.5
		c4.1,1,8,3.6,10.6,7.1c1.8,2.4,2.8,5.1,3,7.6L370.1,369.4L370.1,369.4z M422.5,343.7c1.1-2.2,2.7-4,4.7-5.2c1.9-1.2,4-1.9,6.2-2
		c4.7-0.3,9,2.1,12,6c5.1,6.7-2.2,23.3-5.3,27c0,0-29.6,0.6-29.3,0c0.4-0.9,2.8-6.7,3.2-7.6C416.7,355.8,419.5,349.6,422.5,343.7z
		 M365.9,304.8l45,45c-0.3,0.6-0.6,1.2-0.9,1.8c-0.7,1.4-1.4,2.8-2,4.3c-1.9-4.6-10.6-7.9-10.6-7.9c-3.2-1.2-6.4-1.7-9.6-1.7
		c-0.7,0-1.5,0-2.2,0.1c-3.8,0.3-7.3,1.4-10.6,3.3c-6.4,3.7-11,12.1-12.7,19.8h-11c-0.3-0.9-0.6-1.7-0.7-2.1
		c-3.2-8.3-8.2-21.6-12.9-34.2L365.9,304.8z M278.9,296c0.1-1.1,0.2-2,0.4-2.9c1.6-7.6,8.1-13.5,15.9-14.1c0.5,0,0.9-0.1,1.4-0.1
		c3.2,0,6.4,0.9,9.2,2.7c3.3,2,5.8,5,7.1,8.3c5.6,14.7,11.2,29.7,16.6,44.2c4,10.6,8.1,21.6,12.2,32.4c0.4,1.1,0.1,1.5-0.7,2
		c-0.4,0.3-0.9,0.6-1.3,0.9h-34.5c-0.5-0.5-0.9-1-1.2-1.7c-4-10.9-8.2-21.9-12.2-32.6c-3.8-10-7.7-20.4-11.5-30.7
		c-0.6-1.6-0.9-3.2-1.2-4.7c-0.1-0.6-0.2-1.2-0.4-1.7C278.7,297.2,278.8,296.6,278.9,296z"/>
</g>
</svg>
